<?xml version="1.0" ?><svg viewBox="0 0 64 64" xmlns="http://www.w3.org/2000/svg"><title/><g data-name="23-Home" id="_23-Home"><path d="M38,41.5V47a2.035,2.035,0,0,1-2,2v6.8A3.043,3.043,0,0,1,33.2,58H30.8A3.043,3.043,0,0,1,28,55.8V49a2.035,2.035,0,0,1-2-2V41.5A5.767,5.767,0,0,1,32,36,5.767,5.767,0,0,1,38,41.5Z" style="fill:#f5f5f5"/><circle cx="32" cy="30" r="4" style="fill:#f5f5f5"/><path d="M38,41.5A5.767,5.767,0,0,0,32,36a5.767,5.767,0,0,0-6,5.5V47a2.035,2.035,0,0,0,2,2v6.8A3.043,3.043,0,0,0,30.8,58h2.4A3.043,3.043,0,0,0,36,55.8V49a2.035,2.035,0,0,0,2-2ZM32,34a4,4,0,1,0-4-4A4,4,0,0,0,32,34ZM61,20v3H53V63H11V23H3V20L31.94,1Z" style="fill:#34c1ad"/><circle cx="32" cy="30" r="4" style="fill:none;stroke:#000;stroke-linejoin:round;stroke-width:2px"/><path d="M32,36a5.766,5.766,0,0,0-6,5.5V47a2.042,2.042,0,0,0,2,2v6.8A3.054,3.054,0,0,0,30.8,58h2.4A3.054,3.054,0,0,0,36,55.8V49a2.042,2.042,0,0,0,2-2V41.5A5.766,5.766,0,0,0,32,36Z" style="fill:none;stroke:#000;stroke-linejoin:round;stroke-width:2px"/><polyline points="53 56 53 23 61 23 61 20 31.937 1 3 20 3 20 3 23 11 23 11 28" style="fill:none;stroke:#000;stroke-linejoin:round;stroke-width:2px"/><polyline points="11 34 11 63 53 63 53 58" style="fill:none;stroke:#000;stroke-linejoin:round;stroke-width:2px"/><line style="fill:none;stroke:#000;stroke-linejoin:round;stroke-width:2px" x1="11" x2="11" y1="30" y2="32"/></g></svg>